<svg id="Layer_1" data-name="Layer 1" xmlns="http://www.w3.org/2000/svg" viewBox="0 0 207.54 306.57"><defs><style>.cls-1{font-size:45px;fill:#efdece;font-family:YesevaOne-Regular, Yeseva One;}.cls-2{letter-spacing:-0.01em;}.cls-3{fill:#b5aaa0;}.cls-4{fill:#87c5d8;}.cls-4,.cls-5{stroke:#010101;stroke-width:5px;}.cls-5{fill:#fff;fill-opacity:0.3;}</style></defs><text class="cls-1" transform="translate(32.11 289.12)">HO<tspan class="cls-2" x="67.72" y="0">M</tspan><tspan x="111.6" y="0">E</tspan></text><path class="cls-3" d="M181.68,388.68,179.8,395h-.45l.9-3h-3.78l-.88,3h-.45l1.88-6.3h.45l-.88,2.92h3.78l.86-2.92Z" transform="translate(-162.37 -88.56)"/><path class="cls-3" d="M181.69,395h-.43l4.62-6.57h0l.69,6.57h-.48l-.59-5.83.36-.17Zm1.6-2.5h2.8v.41h-3Z" transform="translate(-162.37 -88.56)"/><path class="cls-3" d="M190,388.68h.42l-1.75,5.88h3.45L192,395h-3.88Z" transform="translate(-162.37 -88.56)"/><path class="cls-3" d="M195.08,388.68h.42l-1.75,5.88h3.46l-.13.42H193.2Z" transform="translate(-162.37 -88.56)"/><path class="cls-3" d="M204,395a2.9,2.9,0,0,1-1.12-.21,2.3,2.3,0,0,1-.86-.6,2.19,2.19,0,0,1-.49-.93,2.8,2.8,0,0,1,0-1.23,3.93,3.93,0,0,1,.44-1.19,4.5,4.5,0,0,1,.84-1.12,4.32,4.32,0,0,1,1.22-.83,3.7,3.7,0,0,1,1.53-.31,3,3,0,0,1,1.13.21,2.21,2.21,0,0,1,1.35,1.54,3,3,0,0,1,0,1.23,4,4,0,0,1-.43,1.19,4.69,4.69,0,0,1-.85,1.11,4.24,4.24,0,0,1-1.21.82A3.69,3.69,0,0,1,204,395Zm.09-.42a3.18,3.18,0,0,0,1.32-.27,3.81,3.81,0,0,0,1.06-.72,4.08,4.08,0,0,0,.74-1,3.47,3.47,0,0,0,.37-1,2.19,2.19,0,0,0,0-1,2.07,2.07,0,0,0-.4-.83,2,2,0,0,0-.72-.56,2.29,2.29,0,0,0-1-.2,3.18,3.18,0,0,0-1.32.27A3.89,3.89,0,0,0,203,390a4.28,4.28,0,0,0-.74,1,3.43,3.43,0,0,0-.37,1,2.35,2.35,0,0,0,0,1,2,2,0,0,0,.39.82,2,2,0,0,0,.73.56A2.41,2.41,0,0,0,204.07,394.62Z" transform="translate(-162.37 -88.56)"/><path class="cls-3" d="M210.53,388.68h3.52l-.13.42h-3.08l-.77,2.59h2.73l-.13.41h-2.73l-.85,2.88h-.44Z" transform="translate(-162.37 -88.56)"/><path class="cls-3" d="M216.85,395h-.42l1.93-6.44h0l1.78,4.41-.19,0,4.42-4.38h0L222.46,395H222l1.62-5.44,0,.21-3.72,3.7h0l-1.54-3.7.13-.19Z" transform="translate(-162.37 -88.56)"/><path class="cls-3" d="M226.37,388.68h3.88l-.13.41h-3.44l-.75,2.52H229l-.12.4h-3.09l-.76,2.55h3.57l-.13.42h-4Z" transform="translate(-162.37 -88.56)"/><path class="cls-3" d="M235.39,395.13h0l-3.27-5.63.11-.06L230.57,395h-.42l1.92-6.43h0l3.27,5.66h-.11l1.65-5.54h.41Z" transform="translate(-162.37 -88.56)"/><path class="cls-3" d="M238.82,388.68h4.12l-.13.43H241L239.22,395h-.45l1.75-5.87h-1.83Z" transform="translate(-162.37 -88.56)"/><path class="cls-3" d="M242,395h-.43l4.62-6.57h0l.69,6.57h-.49l-.58-5.83.36-.17Zm1.6-2.5h2.8v.41h-3Z" transform="translate(-162.37 -88.56)"/><path class="cls-3" d="M250.23,388.68h.43l-1.75,5.88h3.45l-.12.42h-3.89Z" transform="translate(-162.37 -88.56)"/><path class="cls-3" d="M253.75,393h1.64l-.11.37h-1.64Z" transform="translate(-162.37 -88.56)"/><path class="cls-3" d="M262.69,388.68l-1.88,6.3h-.45l.9-3h-3.78l-.88,3h-.45l1.88-6.3h.45l-.88,2.92h3.78l.86-2.92Z" transform="translate(-162.37 -88.56)"/><path class="cls-3" d="M264.71,388.68h3.88l-.13.41H265l-.76,2.52h3.1l-.13.4h-3.09l-.75,2.55H267l-.13.42h-4Z" transform="translate(-162.37 -88.56)"/><path class="cls-3" d="M268.37,395h-.44l4.63-6.57h0l.7,6.57h-.49l-.59-5.83.36-.17Zm1.6-2.5h2.79v.41h-3Z" transform="translate(-162.37 -88.56)"/><path class="cls-3" d="M276.63,388.68h.42l-1.75,5.88h3.46l-.13.42h-3.88Z" transform="translate(-162.37 -88.56)"/><path class="cls-3" d="M280.41,388.68h4.13l-.13.43h-1.85L280.81,395h-.44l1.75-5.87h-1.83Z" transform="translate(-162.37 -88.56)"/><path class="cls-3" d="M290.69,388.68l-1.88,6.3h-.44l.89-3h-3.77l-.89,3h-.44l1.88-6.3h.44l-.87,2.92h3.77l.87-2.92Z" transform="translate(-162.37 -88.56)"/><path class="cls-3" d="M295.37,388.68h3.89l-.13.41h-3.44l-.75,2.52H298l-.12.4h-3.1l-.75,2.55h3.57l-.13.42h-4Z" transform="translate(-162.37 -88.56)"/><path class="cls-3" d="M298.5,395l3.11-3.33.13.38L299,395Zm2-6.3H301l2.23,6.3h-.55Zm1.39,2.83,2.59-2.83H305l-3,3.18Z" transform="translate(-162.37 -88.56)"/><path class="cls-3" d="M307.86,388.68a1.83,1.83,0,0,1,.62.1,1.38,1.38,0,0,1,.52.28,1,1,0,0,1,.32.49,1.37,1.37,0,0,1,0,.71,2.73,2.73,0,0,1-.26.74,2.69,2.69,0,0,1-.52.67,2.49,2.49,0,0,1-.79.48,2.82,2.82,0,0,1-1,.18h-1L305,395h-.44l1.88-6.3Zm-1,3.24a2.06,2.06,0,0,0,.86-.17,1.84,1.84,0,0,0,.61-.42,2.27,2.27,0,0,0,.38-.53,1.91,1.91,0,0,0,.17-.49,1,1,0,0,0-.06-.61.88.88,0,0,0-.4-.43,1.36,1.36,0,0,0-.71-.16h-1l-.84,2.81Z" transform="translate(-162.37 -88.56)"/><path class="cls-3" d="M311.3,388.68h3.88l-.12.41h-3.44l-.75,2.52H314l-.13.4h-3.09l-.75,2.55h3.56l-.12.42h-4Z" transform="translate(-162.37 -88.56)"/><path class="cls-3" d="M318.4,388.68a2.53,2.53,0,0,1,.67.1,1.46,1.46,0,0,1,.54.32,1,1,0,0,1,.29.56,1.63,1.63,0,0,1-.06.8,2.67,2.67,0,0,1-.83,1.29,2.28,2.28,0,0,1-.75.42,2.78,2.78,0,0,1-1,.16h-1l-.79,2.65h-.43l1.88-6.3Zm-1,3.24a2.13,2.13,0,0,0,1-.23,1.89,1.89,0,0,0,.65-.56,2.35,2.35,0,0,0,.33-.65,1.4,1.4,0,0,0,.05-.53,1,1,0,0,0-.17-.44.85.85,0,0,0-.37-.3,1.46,1.46,0,0,0-.58-.11h-1.07l-.83,2.82Zm.83.19.9,2.87h-.51l-.89-2.86Z" transform="translate(-162.37 -88.56)"/><path class="cls-3" d="M322.58,388.68H323l-1.88,6.3h-.44Z" transform="translate(-162.37 -88.56)"/><path class="cls-3" d="M325,388.68h3.88l-.12.41h-3.44l-.76,2.52h3.1l-.13.4h-3.09l-.75,2.55h3.56l-.12.42h-4Z" transform="translate(-162.37 -88.56)"/><path class="cls-3" d="M334.06,395.13h0l-3.27-5.63.12-.06L329.24,395h-.42l1.93-6.43h0l3.28,5.66h-.12l1.65-5.54H336Z" transform="translate(-162.37 -88.56)"/><path class="cls-3" d="M340.77,394.69a4.37,4.37,0,0,1-.48.19,4.58,4.58,0,0,1-.56.15,4.21,4.21,0,0,1-.62.05,3.1,3.1,0,0,1-1.12-.2,2.36,2.36,0,0,1-.86-.59,2.21,2.21,0,0,1-.49-.92,2.81,2.81,0,0,1,0-1.23,4.32,4.32,0,0,1,.27-.92,4.34,4.34,0,0,1,1.3-1.76,4,4,0,0,1,1.06-.58,4.08,4.08,0,0,1,1.36-.22,2.87,2.87,0,0,1,1,.17,2.63,2.63,0,0,1,.76.42l-.3.38a2.27,2.27,0,0,0-.65-.38,2.4,2.4,0,0,0-.86-.17,3.43,3.43,0,0,0-1.4.26,3.31,3.31,0,0,0-1,.71,3.74,3.74,0,0,0-.7,1,4.57,4.57,0,0,0-.36,1.08,2.57,2.57,0,0,0,0,1,1.93,1.93,0,0,0,.4.81,2.1,2.1,0,0,0,.74.52,2.56,2.56,0,0,0,1.52.13,2.85,2.85,0,0,0,.5-.14l.44-.17Z" transform="translate(-162.37 -88.56)"/><path class="cls-3" d="M344.18,388.68h3.89l-.13.41H344.5l-.75,2.52h3.09l-.12.4h-3.1l-.75,2.55h3.57l-.13.42h-4Z" transform="translate(-162.37 -88.56)"/><path class="cls-3" d="M352.58,389.51a3.75,3.75,0,0,0-.63-.3,2.48,2.48,0,0,0-.8-.16,1.83,1.83,0,0,0-.7.12,1.4,1.4,0,0,0-.48.29,1.21,1.21,0,0,0-.29.37,2,2,0,0,0-.14.33.7.7,0,0,0,.09.54,1.31,1.31,0,0,0,.43.41l.6.34a4.84,4.84,0,0,1,.67.38,1.36,1.36,0,0,1,.47.54,1.28,1.28,0,0,1,.06.84,2.19,2.19,0,0,1-.24.62,2.64,2.64,0,0,1-.48.6,2.36,2.36,0,0,1-.72.44,2.42,2.42,0,0,1-1,.17,3,3,0,0,1-.83-.13,2.22,2.22,0,0,1-.62-.29,2.25,2.25,0,0,1-.43-.35l.3-.34a2,2,0,0,0,.4.34,2.39,2.39,0,0,0,.58.27,2.93,2.93,0,0,0,.68.11,1.89,1.89,0,0,0,1.55-.76,1.69,1.69,0,0,0,.32-.68.9.9,0,0,0-.08-.64,1.28,1.28,0,0,0-.42-.45,5.82,5.82,0,0,0-.6-.34c-.17-.08-.33-.17-.5-.27a2.07,2.07,0,0,1-.44-.32,1.16,1.16,0,0,1-.27-.43,1.09,1.09,0,0,1,0-.57,1.75,1.75,0,0,1,.42-.81,2.17,2.17,0,0,1,.76-.53,2.46,2.46,0,0,1,.94-.18,3.34,3.34,0,0,1,1.17.26,2.61,2.61,0,0,1,.47.26Z" transform="translate(-162.37 -88.56)"/><path class="cls-4" d="M274.29,93.33l85,51.08a17.12,17.12,0,0,1,8.15,14.71V261.28A17.11,17.11,0,0,1,359.25,276l-85,51.08a15.72,15.72,0,0,1-16.31,0L173,276a17.13,17.13,0,0,1-8.15-14.71V159.12A17.14,17.14,0,0,1,173,144.41l85-51.08A15.77,15.77,0,0,1,274.29,93.33Z" transform="translate(-162.37 -88.56)"/><path class="cls-5" d="M265.77,108.42l75.47,36.65A17,17,0,0,1,350.6,159l7.25,86.38a17.29,17.29,0,0,1-6.89,15.4L282.75,310.5A15.76,15.76,0,0,1,266.5,312L191,275.34a17,17,0,0,1-9.36-13.92L174.42,175a17.26,17.26,0,0,1,6.89-15.4l68.21-49.74A15.78,15.78,0,0,1,265.77,108.42Z" transform="translate(-162.37 -88.56)"/><path class="cls-5" d="M259.54,123.75l64.3,24.37a16.83,16.83,0,0,1,10.49,13l11.89,70.18a17.38,17.38,0,0,1-5.58,16l-52.43,45.81a15.78,15.78,0,0,1-16.07,3l-64.3-24.37a16.83,16.83,0,0,1-10.49-13l-11.88-70.18a17.35,17.35,0,0,1,5.57-16l52.43-45.81A15.78,15.78,0,0,1,259.54,123.75Z" transform="translate(-162.37 -88.56)"/><path class="cls-5" d="M256.37,139.75l51.78,14.45a16.66,16.66,0,0,1,11.53,12l13.88,53.92a17.44,17.44,0,0,1-4.23,16.41L291.43,276a15.86,15.86,0,0,1-15.76,4.39L223.89,266a16.66,16.66,0,0,1-11.53-12L198.48,200a17.5,17.5,0,0,1,4.23-16.41l37.9-39.47A15.88,15.88,0,0,1,256.37,139.75Z" transform="translate(-162.37 -88.56)"/><path class="cls-5" d="M256,155.82l38.18,7a16.52,16.52,0,0,1,12.5,10.92l13.26,37.95a17.54,17.54,0,0,1-2.83,16.73l-24.92,30.93a16,16,0,0,1-15.34,5.81l-38.18-7a16.54,16.54,0,0,1-12.5-10.92L212.9,209.3a17.58,17.58,0,0,1,2.83-16.74l24.93-30.93A16,16,0,0,1,256,155.82Z" transform="translate(-162.37 -88.56)"/><path class="cls-5" d="M257.51,170.76l23.86,2.17a16.36,16.36,0,0,1,13.36,9.75l10.12,22.6a17.59,17.59,0,0,1-1.42,16.92l-13.74,20.42a16.05,16.05,0,0,1-14.78,7.18l-23.85-2.17a16.36,16.36,0,0,1-13.37-9.74l-10.12-22.6A17.59,17.59,0,0,1,229,198.36l13.73-20.42A16.07,16.07,0,0,1,257.51,170.76Z" transform="translate(-162.37 -88.56)"/></svg>