<svg width="400" height="400" viewBox="0 0 400 400" fill="none" xmlns="http://www.w3.org/2000/svg">
<path d="M213.75 10.8253L356.955 93.5048C365.464 98.4172 370.705 107.496 370.705 117.321V282.679C370.705 292.504 365.464 301.583 356.955 306.495L213.75 389.175C205.241 394.087 194.759 394.087 186.25 389.175L43.0449 306.495C34.5364 301.583 29.2949 292.504 29.2949 282.68V117.321C29.2949 107.496 34.5364 98.4172 43.0449 93.5048L186.25 10.8253C194.759 5.91292 205.241 5.91292 213.75 10.8253Z" fill="#86C5D8" stroke="black" stroke-width="5"/>
<path d="M199.389 35.2517L326.597 94.5699C335.502 98.7221 341.514 107.309 342.371 117.097L354.604 256.921C355.46 266.709 351.03 276.21 342.982 281.845L228.006 362.352C219.958 367.987 209.515 368.901 200.611 364.748L73.4027 305.43C64.4984 301.278 58.4856 292.691 57.6293 282.903L45.3962 143.079C44.5399 133.291 48.9702 123.79 57.0182 118.155L171.994 37.6484C180.042 32.0132 190.485 31.0995 199.389 35.2517Z" fill="white" fill-opacity="0.3" stroke="black" stroke-width="5"/>
<path d="M188.876 60.0546L297.278 99.5097C306.51 102.87 313.249 110.9 314.955 120.576L334.987 234.182C336.693 243.858 333.107 253.709 325.581 260.024L237.211 334.175C229.685 340.49 219.361 342.311 210.129 338.951L101.727 299.495C92.4946 296.135 85.7563 288.105 84.0502 278.429L64.0183 164.823C62.3123 155.147 65.8976 145.296 73.4239 138.981L161.794 64.8299C169.32 58.5146 179.644 56.6943 188.876 60.0546Z" fill="white" fill-opacity="0.3" stroke="black" stroke-width="5"/>
<path d="M183.538 85.964L270.818 109.351C280.308 111.893 287.721 119.306 290.263 128.796L313.65 216.076C316.193 225.566 313.48 235.692 306.532 242.639L242.639 306.532C235.692 313.48 225.566 316.193 216.076 313.65L128.796 290.263C119.306 287.721 111.893 280.308 109.351 270.818L85.9639 183.538C83.4211 174.048 86.1343 163.922 93.0815 156.975L156.975 93.0815C163.922 86.1343 174.048 83.4211 183.538 85.964Z" fill="white" fill-opacity="0.3" stroke="black" stroke-width="5"/>
<path d="M182.896 111.975L247.262 123.324C256.937 125.03 264.968 131.769 268.328 141.001L290.682 202.418C294.042 211.651 292.222 221.974 285.907 229.501L243.895 279.568C237.58 287.095 227.729 290.68 218.053 288.974L153.687 277.625C144.012 275.918 135.981 269.18 132.621 259.948L110.267 198.531C106.907 189.298 108.727 178.975 115.042 171.448L157.054 121.38C163.369 113.854 173.22 110.269 182.896 111.975Z" fill="white" fill-opacity="0.3" stroke="black" stroke-width="5"/>
<path d="M185.469 136.155L225.674 139.673C235.462 140.529 244.049 146.542 248.201 155.446L265.257 192.024C269.409 200.928 268.496 211.371 262.861 219.419L239.712 252.479C234.076 260.527 224.576 264.958 214.788 264.101L174.583 260.584C164.795 259.728 156.208 253.715 152.056 244.811L135 208.233C130.847 199.329 131.761 188.886 137.396 180.838L160.545 147.777C166.181 139.729 175.681 135.299 185.469 136.155Z" fill="white" fill-opacity="0.3" stroke="black" stroke-width="5"/>
</svg>
